<?xml version="1.0" encoding="UTF-8" standalone="no"?>
<svg
   height="512"
   width="512"
   version="1.1"
   id="svg8"
   sodipodi:docname="cpu-temperature-symbolic.svg"
   inkscape:version="1.1 (c68e22c387, 2021-05-23)"
   xmlns:inkscape="http://www.inkscape.org/namespaces/inkscape"
   xmlns:sodipodi="http://sodipodi.sourceforge.net/DTD/sodipodi-0.dtd"
   xmlns="http://www.w3.org/2000/svg"
   xmlns:svg="http://www.w3.org/2000/svg"
   xmlns:rdf="http://www.w3.org/1999/02/22-rdf-syntax-ns#"
   xmlns:cc="http://creativecommons.org/ns#"
   xmlns:dc="http://purl.org/dc/elements/1.1/">
  <title
     id="title16690">CPU Temperature</title>
  <sodipodi:namedview
     pagecolor="#ffffff"
     bordercolor="#666666"
     borderopacity="1"
     objecttolerance="10"
     gridtolerance="10"
     guidetolerance="10"
     inkscape:pageopacity="0"
     inkscape:pageshadow="2"
     inkscape:window-width="1318"
     inkscape:window-height="837"
     id="namedview8"
     showgrid="false"
     inkscape:zoom="0.72880595"
     inkscape:cx="314.89863"
     inkscape:cy="211.99058"
     inkscape:window-x="293"
     inkscape:window-y="107"
     inkscape:window-maximized="0"
     inkscape:current-layer="svg8"
     inkscape:document-rotation="0"
     inkscape:pagecheckerboard="0" />
  <metadata
     id="metadata14">
    <rdf:RDF>
      <cc:Work
         rdf:about="">
        <cc:license
           rdf:resource="http://creativecommons.org/licenses/by-nc-sa/4.0/" />
        <dc:title>CPU Temperature</dc:title>
        <dc:date>26/05/2021</dc:date>
        <dc:creator>
          <cc:Agent>
            <dc:title>Fernando Casas Schössow</dc:title>
          </cc:Agent>
        </dc:creator>
        <dc:publisher>
          <cc:Agent>
            <dc:title>Fernando Casas Schössow</dc:title>
          </cc:Agent>
        </dc:publisher>
      </cc:Work>
      <cc:License
         rdf:about="http://creativecommons.org/licenses/by-nc-sa/4.0/">
        <cc:permits
           rdf:resource="http://creativecommons.org/ns#Reproduction" />
        <cc:permits
           rdf:resource="http://creativecommons.org/ns#Distribution" />
        <cc:requires
           rdf:resource="http://creativecommons.org/ns#Notice" />
        <cc:requires
           rdf:resource="http://creativecommons.org/ns#Attribution" />
        <cc:prohibits
           rdf:resource="http://creativecommons.org/ns#CommercialUse" />
        <cc:permits
           rdf:resource="http://creativecommons.org/ns#DerivativeWorks" />
        <cc:requires
           rdf:resource="http://creativecommons.org/ns#ShareAlike" />
      </cc:License>
    </rdf:RDF>
  </metadata>
  <defs
     id="defs12">
    <rect
       x="-1376.9382"
       y="-688.49011"
       width="312.19256"
       height="1376.8498"
       id="rect7943" />
  </defs>
  <g
     id="g839"
     transform="matrix(1.0050932,0,0,1.0050932,0,2.9324528)">
    <path
       id="path29-3"
       style="opacity:1;fill:#000000;fill-opacity:1;stroke:none;stroke-width:16.86;stroke-linecap:square;stroke-miterlimit:4;stroke-dasharray:none;stroke-opacity:1"
       d="m 334,8.4296875 c -35.8294,0 -64.67383,34.9704295 -64.67383,78.4082035 V 328.86523 A 99.341944,99.341944 0 0 0 234.6582,404.22852 99.341944,99.341944 0 0 0 334,503.57031 99.341944,99.341944 0 0 0 433.3418,404.22852 99.341944,99.341944 0 0 0 398.67383,328.86133 V 86.837891 C 398.67383,43.400117 369.82941,8.4296875 334,8.4296875 Z M 309.45312,236.62305 h 49.09571 v 33.21679 7.77539 89.58789 a 47.255234,47.255234 0 0 1 22.70508,40.3711 47.255234,47.255234 0 0 1 -47.25391,47.2539 47.255234,47.255234 0 0 1 -47.25391,-47.2539 47.255234,47.255234 0 0 1 22.70508,-40.30078 v -97.4336 h 0.002 z" />
    <g
       id="g831">
      <rect
         style="fill:#000000;fill-opacity:1;fill-rule:evenodd;stroke-width:1.78071"
         id="rect1445-2"
         width="72"
         height="24"
         x="437.40549"
         y="94.33873" />
      <rect
         style="fill:#000000;fill-opacity:1;fill-rule:evenodd;stroke-width:1.39204"
         id="rect1445-6"
         width="44"
         height="24"
         x="437.40549"
         y="196.88597" />
      <rect
         style="fill:#000000;fill-opacity:1;fill-rule:evenodd;stroke-width:1.78071"
         id="rect1445-6-5"
         width="72"
         height="24"
         x="437.40549"
         y="299.43326" />
    </g>
    <path
       id="path876"
       d="m 43.5,0 v 28.99997 h -7.249999 a 7.2499994,7.2499929 0 0 0 -0.509762,0.0283 7.2499994,7.2499929 0 0 0 -0.708006,0.0851 7.2499994,7.2499929 0 0 0 -0.02828,0 7.2499994,7.2499929 0 0 0 -0.679685,0.14173 7.2499994,7.2499929 0 0 0 -0.67969,0.22657 7.2499994,7.2499929 0 0 0 -0.02828,0 7.2499994,7.2499929 0 0 0 -0.651369,0.31152 7.2499994,7.2499929 0 0 0 -0.623049,0.36816 7.2499994,7.2499929 0 0 0 -0.594732,0.39649 7.2499994,7.2499929 0 0 0 -0.538082,0.48144 7.2499994,7.2499929 0 0 0 -0.509762,0.53808 7.2499994,7.2499929 0 0 0 -0.424805,0.56642 7.2499994,7.2499929 0 0 0 -0.396489,0.62304 7.2499994,7.2499929 0 0 0 -0.311518,0.65137 7.2499994,7.2499929 0 0 0 -0.25488,0.6797 7.2499994,7.2499929 0 0 0 -0.169923,0.70798 7.2499994,7.2499929 0 0 0 -0.113245,0.70801 A 7.2499994,7.2499929 0 0 0 29,36.25011 v 7.25 H 0 V 58.00008 H 28.999998 V 87.00007 H 0 v 14.49997 h 28.999998 v 28.99998 H 0 v 14.49999 h 28.999998 v 28.99991 H 0 v 14.5 h 28.999998 v 7.25 a 7.2499994,7.2499929 0 0 0 0.02826,0.50982 7.2499994,7.2499929 0 0 0 0.08497,0.70803 7.2499994,7.2499929 0 0 0 0,0.029 7.2499994,7.2499929 0 0 0 0.141665,0.67962 7.2499994,7.2499929 0 0 0 0.226562,0.67976 7.2499994,7.2499929 0 0 0 0,0.029 7.2499994,7.2499929 0 0 0 0.311517,0.65134 7.2499994,7.2499929 0 0 0 0.36817,0.62306 7.2499994,7.2499929 0 0 0 0.396488,0.59479 7.2499994,7.2499929 0 0 0 0.481444,0.53809 7.2499994,7.2499929 0 0 0 0.538081,0.50982 7.2499994,7.2499929 0 0 0 0.566413,0.42485 7.2499994,7.2499929 0 0 0 0.623051,0.39643 7.2499994,7.2499929 0 0 0 0.651369,0.31161 7.2499994,7.2499929 0 0 0 0.679687,0.25491 7.2499994,7.2499929 0 0 0 0.708005,0.17 7.2499994,7.2499929 0 0 0 0.708006,0.1131 7.2499994,7.2499929 0 0 0 0.736297,0.0269 h 7.249999 V 232 H 57.99999 V 203.00004 H 86.999987 V 232 H 101.49999 V 203.00004 H 130.5 V 232 H 145 v -28.99996 h 29 V 232 h 14.5 v -28.99996 h 7.25 a 7.2499994,7.2499929 0 0 0 0.50982,-0.029 7.2499994,7.2499929 0 0 0 0.70804,-0.0854 7.2499994,7.2499929 0 0 0 0.029,0 7.2499994,7.2499929 0 0 0 0.67963,-0.1421 7.2499994,7.2499929 0 0 0 0.67976,-0.22663 7.2499994,7.2499929 0 0 0 0.029,0 7.2499994,7.2499929 0 0 0 0.65134,-0.31161 7.2499994,7.2499929 0 0 0 0.62307,-0.36815 7.2499994,7.2499929 0 0 0 0.59478,-0.39643 7.2499994,7.2499929 0 0 0 0.5381,-0.4814 7.2499994,7.2499929 0 0 0 0.50982,-0.5381 7.2499994,7.2499929 0 0 0 0.42485,-0.56637 7.2499994,7.2499929 0 0 0 0.39643,-0.62306 7.2499994,7.2499929 0 0 0 0.31161,-0.65134 7.2499994,7.2499929 0 0 0 0.2549,-0.67962 7.2499994,7.2499929 0 0 0 0.17002,-0.70803 7.2499994,7.2499929 0 0 0 0.1131,-0.70803 7.2499994,7.2499929 0 0 0 0.0267,-0.73457 v -7.25 H 232 V 174.00017 H 203.00001 V 145.0001 H 232 v -14.5 H 203.00001 V 101.50013 H 232 V 87.0001 H 203.00001 V 58.00011 H 232 V 43.50014 h -28.99999 v -7.25 a 7.2499994,7.2499929 0 0 0 -0.029,-0.50975 7.2499994,7.2499929 0 0 0 -0.0857,-0.70803 7.2499994,7.2499929 0 0 0 0,-0.0283 7.2499994,7.2499929 0 0 0 -0.1421,-0.67969 7.2499994,7.2499929 0 0 0 -0.22663,-0.67969 7.2499994,7.2499929 0 0 0 0,-0.0284 7.2499994,7.2499929 0 0 0 -0.31161,-0.65134 7.2499994,7.2499929 0 0 0 -0.36815,-0.62305 7.2499994,7.2499929 0 0 0 -0.39643,-0.59474 7.2499994,7.2499929 0 0 0 -0.4814,-0.53808 7.2499994,7.2499929 0 0 0 -0.5381,-0.50976 7.2499994,7.2499929 0 0 0 -0.56637,-0.42481 7.2499994,7.2499929 0 0 0 -0.62306,-0.3965 7.2499994,7.2499929 0 0 0 -0.65134,-0.3115 7.2499994,7.2499929 0 0 0 -0.67962,-0.2549 7.2499994,7.2499929 0 0 0 -0.70803,-0.16982 7.2499994,7.2499929 0 0 0 -0.70804,-0.11323 7.2499994,7.2499929 0 0 0 -0.73457,-0.0286 h -7.25 V 2.3e-4 H 174 V 29.00018 H 145 V 2.3e-4 h -14.5 v 28.99995 h -29 V 2.3e-4 H 86.999999 V 29.00018 H 58.000001 V 2.3e-4 Z m 7.250001,43.49996 H 181.25 a 7.2499994,7.2499929 0 0 1 0.73631,0.0283 7.2499994,7.2499929 0 0 1 0.70803,0.11322 7.2499994,7.2499929 0 0 1 0.70804,0.16983 7.2499994,7.2499929 0 0 1 0.67961,0.25487 7.2499994,7.2499929 0 0 1 0.65134,0.31151 7.2499994,7.2499929 0 0 1 0.62307,0.39651 7.2499994,7.2499929 0 0 1 0.56637,0.42479 7.2499994,7.2499929 0 0 1 0.53809,0.50976 7.2499994,7.2499929 0 0 1 0.48141,0.53809 7.2499994,7.2499929 0 0 1 0.39642,0.59471 7.2499994,7.2499929 0 0 1 0.36816,0.62306 7.2499994,7.2499929 0 0 1 0.31161,0.65139 7.2499994,7.2499929 0 0 0 0,0.0283 7.2499994,7.2499929 0 0 1 0.22663,0.67967 7.2499994,7.2499929 0 0 1 0.1421,0.6797 7.2499994,7.2499929 0 0 0 0,0.0284 7.2499994,7.2499929 0 0 1 0.0855,0.70798 7.2499994,7.2499929 0 0 1 0.0273,0.50994 v 130.49983 a 7.2499994,7.2499929 0 0 1 -0.029,0.7363 7.2499994,7.2499929 0 0 1 -0.1131,0.70804 7.2499994,7.2499929 0 0 1 -0.17001,0.70803 7.2499994,7.2499929 0 0 1 -0.25491,0.67962 7.2499994,7.2499929 0 0 1 -0.31159,0.65134 7.2499994,7.2499929 0 0 1 -0.39643,0.62306 7.2499994,7.2499929 0 0 1 -0.42485,0.56637 7.2499994,7.2499929 0 0 1 -0.50982,0.5381 7.2499994,7.2499929 0 0 1 -0.53811,0.4814 7.2499994,7.2499929 0 0 1 -0.59479,0.39642 7.2499994,7.2499929 0 0 1 -0.62305,0.36816 7.2499994,7.2499929 0 0 1 -0.65134,0.3116 7.2499994,7.2499929 0 0 0 -0.029,0 7.2499994,7.2499929 0 0 1 -0.67976,0.22664 7.2499994,7.2499929 0 0 1 -0.67963,0.1421 7.2499994,7.2499929 0 0 0 -0.029,0 7.2499994,7.2499929 0 0 1 -0.70802,0.0856 7.2499994,7.2499929 0 0 1 -0.50767,0.0274 H 50.750019 a 7.2499994,7.2499929 0 0 1 -0.736328,-0.029 7.2499994,7.2499929 0 0 1 -0.708002,-0.1131 7.2499994,7.2499929 0 0 1 -0.708008,-0.17002 7.2499994,7.2499929 0 0 1 -0.679687,-0.25491 7.2499994,7.2499929 0 0 1 -0.651367,-0.3116 7.2499994,7.2499929 0 0 1 -0.623053,-0.39643 7.2499994,7.2499929 0 0 1 -0.566415,-0.42485 7.2499994,7.2499929 0 0 1 -0.538078,-0.50982 7.2499994,7.2499929 0 0 1 -0.481444,-0.53809 7.2499994,7.2499929 0 0 1 -0.396488,-0.59479 7.2499994,7.2499929 0 0 1 -0.368169,-0.62307 7.2499994,7.2499929 0 0 1 -0.311518,-0.65134 7.2499994,7.2499929 0 0 0 0,-0.029 7.2499994,7.2499929 0 0 1 -0.226562,-0.67976 7.2499994,7.2499929 0 0 1 -0.141665,-0.67961 7.2499994,7.2499929 0 0 0 0,-0.029 7.2499994,7.2499929 0 0 1 -0.08497,-0.70804 A 7.2499994,7.2499929 0 0 1 43.5,181.2497 V 50.74993 a 7.2499994,7.2499929 0 0 1 0.02828,-0.73632 7.2499994,7.2499929 0 0 1 0.113245,-0.70802 7.2499994,7.2499929 0 0 1 0.169921,-0.708 7.2499994,7.2499929 0 0 1 0.254881,-0.67968 7.2499994,7.2499929 0 0 1 0.311518,-0.65139 7.2499994,7.2499929 0 0 1 0.396487,-0.62303 7.2499994,7.2499929 0 0 1 0.424808,-0.56642 7.2499994,7.2499929 0 0 1 0.509764,-0.53808 7.2499994,7.2499929 0 0 1 0.538079,-0.48144 7.2499994,7.2499929 0 0 1 0.594732,-0.39648 7.2499994,7.2499929 0 0 1 0.623052,-0.36819 7.2499994,7.2499929 0 0 1 0.651367,-0.31151 7.2499994,7.2499929 0 0 0 0.02828,0 7.2499994,7.2499929 0 0 1 0.679686,-0.22655 7.2499994,7.2499929 0 0 1 0.679689,-0.14175 7.2499994,7.2499929 0 0 0 0.02828,0 7.2499994,7.2499929 0 0 1 0.708008,-0.085 7.2499994,7.2499929 0 0 1 0.509938,-0.0283 z M 65.25,57.99994 a 7.2499994,7.2499929 0 0 0 -0.509765,0.0284 7.2499994,7.2499929 0 0 0 -0.736323,0.0851 7.2499994,7.2499929 0 0 0 -0.679687,0.14174 7.2499994,7.2499929 0 0 0 -0.708006,0.22656 7.2499994,7.2499929 0 0 0 -0.651369,0.31152 7.2499994,7.2499929 0 0 0 -0.623053,0.36817 7.2499994,7.2499929 0 0 0 -0.59473,0.39649 7.2499994,7.2499929 0 0 0 -0.538082,0.48143 7.2499994,7.2499929 0 0 0 -0.50976,0.53807 7.2499994,7.2499929 0 0 0 -0.424804,0.56644 7.2499994,7.2499929 0 0 0 -0.396491,0.62303 7.2499994,7.2499929 0 0 0 -0.311518,0.65138 7.2499994,7.2499929 0 0 0 -0.254878,0.67969 7.2499994,7.2499929 0 0 0 -0.169923,0.70799 7.2499994,7.2499929 0 0 0 -0.113245,0.708 7.2499994,7.2499929 0 0 0 -0.02837,0.73631 v 101.49991 a 7.2499994,7.2499929 0 0 0 0.02828,0.50982 7.2499994,7.2499929 0 0 0 0.08497,0.73631 7.2499994,7.2499929 0 0 0 0.141665,0.67962 7.2499994,7.2499929 0 0 0 0.226561,0.70803 7.2499994,7.2499929 0 0 0 0.311516,0.65134 7.2499994,7.2499929 0 0 0 0.368173,0.62306 7.2499994,7.2499929 0 0 0 0.396485,0.59478 7.2499994,7.2499929 0 0 0 0.481444,0.5381 7.2499994,7.2499929 0 0 0 0.538081,0.50982 7.2499994,7.2499929 0 0 0 0.566411,0.42485 7.2499994,7.2499929 0 0 0 0.623051,0.39643 7.2499994,7.2499929 0 0 0 0.651371,0.3116 7.2499994,7.2499929 0 0 0 0.679688,0.25491 7.2499994,7.2499929 0 0 0 0.708003,0.17002 7.2499994,7.2499929 0 0 0 0.708008,0.1131 7.2499994,7.2499929 0 0 0 0.7363,0.0284 H 166.75 a 7.2499994,7.2499929 0 0 0 0.50982,-0.029 7.2499994,7.2499929 0 0 0 0.73631,-0.0854 7.2499994,7.2499929 0 0 0 0.67961,-0.1421 7.2499994,7.2499929 0 0 0 0.70804,-0.22663 7.2499994,7.2499929 0 0 0 0.65134,-0.31161 7.2499994,7.2499929 0 0 0 0.62307,-0.36815 7.2499994,7.2499929 0 0 0 0.59479,-0.39643 7.2499994,7.2499929 0 0 0 0.5381,-0.4814 7.2499994,7.2499929 0 0 0 0.50982,-0.5381 7.2499994,7.2499929 0 0 0 0.42484,-0.56635 7.2499994,7.2499929 0 0 0 0.39643,-0.62307 7.2499994,7.2499929 0 0 0 0.31161,-0.65133 7.2499994,7.2499929 0 0 0 0.25489,-0.67962 7.2499994,7.2499929 0 0 0 0.16994,-0.70803 7.2499994,7.2499929 0 0 0 0.1131,-0.70804 7.2499994,7.2499929 0 0 0 0.0284,-0.73457 V 65.25041 a 7.2499994,7.2499929 0 0 0 -0.029,-0.50977 7.2499994,7.2499929 0 0 0 -0.0856,-0.73633 7.2499994,7.2499929 0 0 0 -0.14211,-0.67969 7.2499994,7.2499929 0 0 0 -0.22661,-0.70799 7.2499994,7.2499929 0 0 0 -0.31161,-0.65138 7.2499994,7.2499929 0 0 0 -0.36815,-0.62303 7.2499994,7.2499929 0 0 0 -0.39643,-0.59475 7.2499994,7.2499929 0 0 0 -0.4814,-0.53808 7.2499994,7.2499929 0 0 0 -0.5381,-0.50976 7.2499994,7.2499929 0 0 0 -0.56637,-0.42481 7.2499994,7.2499929 0 0 0 -0.62306,-0.39649 7.2499994,7.2499929 0 0 0 -0.65134,-0.31152 7.2499994,7.2499929 0 0 0 -0.67962,-0.25487 7.2499994,7.2499929 0 0 0 -0.70803,-0.17001 7.2499994,7.2499929 0 0 0 -0.70804,-0.11322 7.2499994,7.2499929 0 0 0 -0.73457,-0.0284 z m 87,14.49998 c 4.00406,0 7.25,3.24594 7.25,7.25001 0,4.00404 -3.24594,7.24999 -7.25,7.24999 -4.00406,0 -7.25,-3.24595 -7.25,-7.24999 0,-4.00407 3.24594,-7.25001 7.25,-7.25001 z"
       style="stroke-width:17.4" />
  </g>
</svg>
