<?xml version="1.0" encoding="UTF-8" standalone="no"?>
<svg
   xmlns:dc="http://purl.org/dc/elements/1.1/"
   xmlns:cc="http://creativecommons.org/ns#"
   xmlns:rdf="http://www.w3.org/1999/02/22-rdf-syntax-ns#"
   xmlns:svg="http://www.w3.org/2000/svg"
   xmlns="http://www.w3.org/2000/svg"
   xmlns:sodipodi="http://sodipodi.sourceforge.net/DTD/sodipodi-0.dtd"
   xmlns:inkscape="http://www.inkscape.org/namespaces/inkscape"
   height="512"
   width="512"
   version="1.1"
   id="svg8"
   sodipodi:docname="cpu-symbolic_.svg"
   inkscape:version="1.0.2 (e86c870879, 2021-01-15)">
  <sodipodi:namedview
     pagecolor="#ffffff"
     bordercolor="#666666"
     borderopacity="1"
     objecttolerance="10"
     gridtolerance="10"
     guidetolerance="10"
     inkscape:pageopacity="0"
     inkscape:pageshadow="2"
     inkscape:window-width="1920"
     inkscape:window-height="911"
     id="namedview8"
     showgrid="false"
     inkscape:zoom="0.73891183"
     inkscape:cx="8"
     inkscape:cy="314.85175"
     inkscape:window-x="0"
     inkscape:window-y="32"
     inkscape:window-maximized="1"
     inkscape:current-layer="svg8"
     inkscape:document-rotation="0" />
  <metadata
     id="metadata14">
    <rdf:RDF>
      <cc:Work
         rdf:about="">
        <dc:format>image/svg+xml</dc:format>
        <dc:type
           rdf:resource="http://purl.org/dc/dcmitype/StillImage" />
        <dc:title />
      </cc:Work>
    </rdf:RDF>
  </metadata>
  <defs
     id="defs12" />
  <path
     id="path876"
     d="m 95.999956,-4.4e-5 v 64 h -16 a 16,16 0 0 0 -1.124992,0.0624 16,16 0 0 0 -1.562496,0.18752 16,16 0 0 0 -0.0624,0 16,16 0 0 0 -1.5,0.31264 16,16 0 0 0 -1.5,0.5 16,16 0 0 0 -0.0624,0 16,16 0 0 0 -1.437504,0.687488 16,16 0 0 0 -1.375008,0.812512 16,16 0 0 0 -1.312512,0.875008 16,16 0 0 0 -1.187488,1.062496 16,16 0 0 0 -1.124992,1.187488 16,16 0 0 0 -0.937504,1.250016 16,16 0 0 0 -0.875008,1.375008 16,16 0 0 0 -0.687488,1.437504 16,16 0 0 0 -0.562496,1.5 16,16 0 0 0 -0.375008,1.562496 16,16 0 0 0 -0.24992,1.562496 16,16 0 0 0 -0.06278,1.624928 v 16 h -64 v 32.000004 h 64 v 64 h -64 v 32 h 64 v 64 h -64 v 32 h 64 v 64 h -64 v 32 h 64 v 16 a 16,16 0 0 0 0.0624,1.12512 16,16 0 0 0 0.18752,1.56256 16,16 0 0 0 0,0.064 16,16 0 0 0 0.31264,1.49984 16,16 0 0 0 0.5,1.50016 16,16 0 0 0 0,0.064 16,16 0 0 0 0.687488,1.43744 16,16 0 0 0 0.812512,1.37504 16,16 0 0 0 0.875008,1.31264 16,16 0 0 0 1.062496,1.18752 16,16 0 0 0 1.187488,1.12512 16,16 0 0 0 1.250016,0.9376 16,16 0 0 0 1.375008,0.87488 16,16 0 0 0 1.437504,0.68768 16,16 0 0 0 1.5,0.56256 16,16 0 0 0 1.562496,0.37504 16,16 0 0 0 1.562496,0.2496 16,16 0 0 0 1.624928,0.0592 h 16 v 64 h 32 v -64 h 64 v 64 h 32 v -64 h 64 v 64 h 32 v -64 h 64 v 64 h 32 v -64 h 16 a 16,16 0 0 0 1.12512,-0.064 16,16 0 0 0 1.56256,-0.1888 16,16 0 0 0 0.064,0 16,16 0 0 0 1.49984,-0.3136 16,16 0 0 0 1.50016,-0.50016 16,16 0 0 0 0.064,0 16,16 0 0 0 1.43744,-0.68768 16,16 0 0 0 1.37504,-0.81248 16,16 0 0 0 1.31264,-0.87488 16,16 0 0 0 1.18752,-1.0624 16,16 0 0 0 1.12512,-1.18752 16,16 0 0 0 0.9376,-1.24992 16,16 0 0 0 0.87488,-1.37504 16,16 0 0 0 0.68768,-1.43744 16,16 0 0 0 0.56256,-1.49984 16,16 0 0 0 0.37504,-1.56256 16,16 0 0 0 0.2496,-1.56256 16,16 0 0 0 0.0592,-1.62112 v -16 h 64 v -32 h -64 v -64 h 64 v -32 h -64 v -64 h 64 v -32 h -64 v -64 h 64 V 95.999956 h -64 v -16 a 16,16 0 0 0 -0.064,-1.124992 16,16 0 0 0 -0.1888,-1.562496 16,16 0 0 0 0,-0.0624 16,16 0 0 0 -0.3136,-1.5 16,16 0 0 0 -0.50016,-1.5 16,16 0 0 0 0,-0.0624 16,16 0 0 0 -0.68768,-1.437504 16,16 0 0 0 -0.81248,-1.375008 16,16 0 0 0 -0.87488,-1.312512 16,16 0 0 0 -1.0624,-1.187488 16,16 0 0 0 -1.18752,-1.124992 16,16 0 0 0 -1.24992,-0.937504 16,16 0 0 0 -1.37504,-0.875008 16,16 0 0 0 -1.43744,-0.687488 16,16 0 0 0 -1.49984,-0.562496 16,16 0 0 0 -1.56256,-0.375008 16,16 0 0 0 -1.56256,-0.24992 16,16 0 0 0 -1.62112,-0.06278 h -16 v -64 h -32 v 64 h -64 v -64 h -32 v 64 h -64 v -64 h -32 v 64 h -64 v -64 z m 16.000004,96 h 288 a 16,16 0 0 1 1.62496,0.0624 16,16 0 0 1 1.56256,0.24992 16,16 0 0 1 1.56256,0.375008 16,16 0 0 1 1.49984,0.562496 16,16 0 0 1 1.43744,0.687488 16,16 0 0 1 1.37504,0.875008 16,16 0 0 1 1.24992,0.937504 16,16 0 0 1 1.18752,1.12499 16,16 0 0 1 1.0624,1.18749 16,16 0 0 1 0.87488,1.31251 16,16 0 0 1 0.81248,1.37501 16,16 0 0 1 0.68768,1.4375 16,16 0 0 0 0,0.0624 16,16 0 0 1 0.50016,1.5 16,16 0 0 1 0.3136,1.5 16,16 0 0 0 0,0.0624 16,16 0 0 1 0.1888,1.5625 16,16 0 0 1 0.0602,1.12538 v 288 a 16,16 0 0 1 -0.064,1.62496 16,16 0 0 1 -0.2496,1.56256 16,16 0 0 1 -0.37504,1.56256 16,16 0 0 1 -0.56256,1.49984 16,16 0 0 1 -0.68768,1.43744 16,16 0 0 1 -0.87488,1.37504 16,16 0 0 1 -0.9376,1.24992 16,16 0 0 1 -1.12512,1.18752 16,16 0 0 1 -1.18752,1.0624 16,16 0 0 1 -1.31264,0.87488 16,16 0 0 1 -1.37504,0.81248 16,16 0 0 1 -1.43744,0.68768 16,16 0 0 0 -0.064,0 16,16 0 0 1 -1.50016,0.50016 16,16 0 0 1 -1.49984,0.3136 16,16 0 0 0 -0.064,0 16,16 0 0 1 -1.56256,0.1888 A 16,16 0 0 1 400,416 H 112 a 16,16 0 0 1 -1.625,-0.064 16,16 0 0 1 -1.56249,-0.2496 16,16 0 0 1 -1.5625,-0.37504 16,16 0 0 1 -1.5,-0.56256 16,16 0 0 1 -1.4375,-0.68768 16,16 0 0 1 -1.37501,-0.87488 16,16 0 0 1 -1.25002,-0.9376 16,16 0 0 1 -1.18748,-1.12512 16,16 0 0 1 -1.0625,-1.18752 16,16 0 0 1 -0.875008,-1.31264 16,16 0 0 1 -0.812512,-1.37504 16,16 0 0 1 -0.687488,-1.43744 16,16 0 0 0 0,-0.064 16,16 0 0 1 -0.5,-1.50016 16,16 0 0 1 -0.31264,-1.49984 16,16 0 0 0 0,-0.064 16,16 0 0 1 -0.18752,-1.56256 A 16,16 0 0 1 95.999992,400 V 112 a 16,16 0 0 1 0.0624,-1.625 16,16 0 0 1 0.24992,-1.56249 16,16 0 0 1 0.375008,-1.5625 16,16 0 0 1 0.562496,-1.5 16,16 0 0 1 0.687488,-1.4375 16,16 0 0 1 0.875008,-1.37501 16,16 0 0 1 0.937504,-1.25002 16,16 0 0 1 1.124994,-1.18748 16,16 0 0 1 1.18749,-1.0625 16,16 0 0 1 1.31251,-0.875008 16,16 0 0 1 1.37501,-0.812512 16,16 0 0 1 1.4375,-0.687488 16,16 0 0 0 0.0624,0 16,16 0 0 1 1.5,-0.5 16,16 0 0 1 1.5,-0.31264 16,16 0 0 0 0.0624,0 16,16 0 0 1 1.5625,-0.18752 A 16,16 0 0 1 112,95.999992 Z m 32,32.000004 a 16,16 0 0 0 -1.125,0.0624 16,16 0 0 0 -1.62499,0.18752 16,16 0 0 0 -1.5,0.31264 16,16 0 0 0 -1.56249,0.5 16,16 0 0 0 -1.43751,0.68748 16,16 0 0 0 -1.37501,0.81252 16,16 0 0 0 -1.31251,0.875 16,16 0 0 0 -1.18749,1.0625 16,16 0 0 0 -1.12499,1.18749 16,16 0 0 0 -0.9375,1.25001 16,16 0 0 0 -0.87501,1.37501 16,16 0 0 0 -0.68749,1.43751 16,16 0 0 0 -0.56249,1.5 16,16 0 0 0 -0.37501,1.56249 16,16 0 0 0 -0.24992,1.5625 16,16 0 0 0 -0.0626,1.62493 v 224 a 16,16 0 0 0 0.0624,1.12512 16,16 0 0 0 0.18752,1.62496 16,16 0 0 0 0.31264,1.49984 16,16 0 0 0 0.5,1.56256 16,16 0 0 0 0.68748,1.43744 16,16 0 0 0 0.81252,1.37504 16,16 0 0 0 0.875,1.31264 16,16 0 0 0 1.0625,1.18752 16,16 0 0 0 1.18749,1.12512 16,16 0 0 0 1.25001,0.9376 16,16 0 0 0 1.37501,0.87488 16,16 0 0 0 1.43751,0.68768 16,16 0 0 0 1.5,0.56256 16,16 0 0 0 1.56249,0.37504 16,16 0 0 0 1.5625,0.2496 16,16 0 0 0 1.62493,0.0624 h 224 a 16,16 0 0 0 1.12512,-0.064 16,16 0 0 0 1.62496,-0.1888 16,16 0 0 0 1.49984,-0.3136 16,16 0 0 0 1.56256,-0.50016 16,16 0 0 0 1.43744,-0.68768 16,16 0 0 0 1.37504,-0.81248 16,16 0 0 0 1.31264,-0.87488 16,16 0 0 0 1.18752,-1.0624 16,16 0 0 0 1.12512,-1.18752 16,16 0 0 0 0.9376,-1.24992 16,16 0 0 0 0.87488,-1.37504 16,16 0 0 0 0.68768,-1.43744 16,16 0 0 0 0.56256,-1.49984 16,16 0 0 0 0.37504,-1.56256 16,16 0 0 0 0.2496,-1.56256 16,16 0 0 0 0.0624,-1.62112 v -224 a 16,16 0 0 0 -0.064,-1.125 16,16 0 0 0 -0.1888,-1.62499 16,16 0 0 0 -0.3136,-1.5 16,16 0 0 0 -0.50016,-1.56249 16,16 0 0 0 -0.68768,-1.43751 16,16 0 0 0 -0.81248,-1.37501 16,16 0 0 0 -0.87488,-1.31251 16,16 0 0 0 -1.0624,-1.18749 16,16 0 0 0 -1.18752,-1.12499 16,16 0 0 0 -1.24992,-0.9375 16,16 0 0 0 -1.37504,-0.87501 16,16 0 0 0 -1.43744,-0.68749 16,16 0 0 0 -1.49984,-0.56249 16,16 0 0 0 -1.56256,-0.37501 16,16 0 0 0 -1.56256,-0.24992 16,16 0 0 0 -1.62112,-0.0626 z m 192,32 c 8.83654,0 16,7.16344 16,16 0,8.83655 -7.16346,16 -16,16 -8.83655,0 -16,-7.16345 -16,-16 0,-8.83656 7.16345,-16 16,-16 z"
     style="stroke-width:38.4" />
</svg>
